<svg id="Layer_1" data-name="Layer 1" xmlns="http://www.w3.org/2000/svg" viewBox="0 0 512 512"><defs><style>.cls-1{fill:#f9b54c;}.cls-2{fill:#f4a200;}.cls-3{fill:#e6f3ff;}.cls-4{fill:#cfdbe6;}.cls-5{fill:#efc75e;}.cls-6{fill:#ca9f30;}</style></defs><title>pswGenerator-logo</title><circle class="cls-1" cx="256" cy="256" r="256"/><path class="cls-2" d="M509.55,291.41,362.77,144.63,171.16,349l-22.22,18L291.4,509.55C404.45,493.91,493.91,404.46,509.55,291.41Z"/><circle class="cls-3" cx="256" cy="256" r="154.29"/><path class="cls-4" d="M410.29,256A154.29,154.29,0,0,0,256,101.71V410.29A154.29,154.29,0,0,0,410.29,256Z"/><path class="cls-5" d="M233.7,166.12c0,1.42,7.75,8.31,7.75,8.31l-7.7,7.73-.58,7.64,8.24,8.66v0h0c.15-.08-8.56,8.42-8.56,8.42l1,6.81s7.38,8,7.38,8.09l-7.34,8.44-1.44,15.5a59,59,0,1,0,40,.21l1.11-94.74S253.78,131,253.77,131l-20.39,20S233.41,157.16,233.7,166.12ZM262.17,307a14,14,0,1,1-19.75-.12A14,14,0,0,1,262.17,307Z"/><path class="cls-6" d="M238.18,330.51a19.57,19.57,0,1,0,.24-27.68A19.57,19.57,0,0,0,238.18,330.51Zm19.94-19.6a8.39,8.39,0,1,1-11.86-.1A8.39,8.39,0,0,1,258.13,310.91Z"/><path class="cls-6" d="M256.76,242.51A58.81,58.81,0,0,1,277.3,248V154.88l-19.6-19.94Z"/></svg>